<?xml version="1.0" standalone="no"?>
<!DOCTYPE svg PUBLIC "-//W3C//DTD SVG 20010904//EN"
 "http://www.w3.org/TR/2001/REC-SVG-20010904/DTD/svg10.dtd">
<svg version="1.0" xmlns="http://www.w3.org/2000/svg"
 width="71.000000pt" height="71.000000pt" viewBox="0 0 71.000000 71.000000"
 preserveAspectRatio="xMidYMid meet">
<metadata>
Created by potrace 1.11, written by Peter Selinger 2001-2013
</metadata>
<g transform="translate(0.000000,71.000000) scale(0.100000,-0.100000)"
fill="#000000" stroke="none">
<path d="M253 696 c-100 -32 -169 -92 -221 -189 -24 -47 -27 -62 -27 -152 1
-81 5 -109 23 -148 30 -66 102 -140 170 -174 51 -25 67 -28 157 -28 82 0 109
4 147 22 66 30 143 106 173 169 22 46 25 66 25 159 0 93 -3 112 -25 156 -35
67 -104 135 -169 165 -68 31 -190 41 -253 20z"/>
</g>
</svg>
